<svg width="1920" height="1242" viewBox="0 0 1920 1242" fill="none" xmlns="http://www.w3.org/2000/svg">
<g clip-path="url(#clip0_92_1452)">
<path d="M120 558H1056C1111.23 558 1156 602.772 1156 658V1062C1156 1117.23 1111.23 1162 1056 1162H120V558Z" fill="#F5EEE1"/>
<path d="M314.646 610.565C312.693 607.59 309.311 606.747 306.276 605.788C301.497 604.267 296.673 602.746 291.804 601.589C290.331 601.242 289.189 603.639 290.722 604.433C293.112 605.672 295.561 606.747 298.011 607.854C300.64 609.045 304.743 609.987 306.982 611.855C307.102 611.954 307.208 612.07 307.328 612.169C286.274 629.857 259.69 638.816 233.211 635.741C232.414 635.642 231.618 635.543 230.822 635.427C238.546 629.89 244.226 621.657 245.579 610.069C247.908 590.067 233.947 572 215.418 572.016C198.377 572.033 184.476 590.415 187.782 608.912C190.412 623.575 201.202 632.369 213.51 637.312C190.773 643.775 163.873 634.551 143.33 625.691C119.21 615.293 92.8517 600.482 66.3879 609.722C47.1073 616.467 33.0864 635.758 31.3582 657.909C31.3131 658.454 31.283 659 31.268 659.562C24.5055 661.827 18.1187 665.166 12.874 669.017C-8.22493 684.457 -19.2102 711.435 -16.6254 738.991C-16.5052 740.314 -14.6117 740.363 -14.7019 738.991C-16.6856 709.236 -2.75483 680.308 22.1762 667.546C25.0165 666.091 28.0671 664.802 31.2229 663.744C31.824 683.3 42.2833 707.897 61.9246 708.558C80.7093 709.187 86.1043 683.663 76.0056 669.745C66.4931 656.619 51.1046 654.57 36.6029 658.025C37.5346 646.999 41.7423 636.518 48.8354 628.352C70.4604 603.441 102.409 613.359 127.671 624.782C151.956 635.758 177.052 646.966 203.877 644.635C210.128 644.089 216.485 642.668 222.316 640.172C226.944 641.362 231.558 642.089 235.841 642.453C262.29 644.734 288.859 635.857 310.048 618.467C310.048 620.434 309.597 622.55 309.311 624.831C308.861 628.468 308.38 632.088 307.989 635.741C307.613 639.246 313.129 640.089 313.624 636.584C314.361 631.295 314.962 625.972 315.563 620.649C315.969 617.145 316.63 613.607 314.646 610.565ZM65.3209 665.761C76.7119 673.216 83.5195 698.045 65.7717 702.624C48.8956 706.988 38.1056 682.754 36.663 668.158C36.4676 666.174 36.3925 664.207 36.4075 662.24C46.2657 659.876 56.7551 660.157 65.3209 665.761ZM222.481 633.758C214.096 631.576 205.981 627.708 199.97 620.947C190.202 609.97 190.983 592.861 202.164 583.34C213.374 573.785 230.205 578.959 237.028 592.134C244.362 606.284 238.05 624.319 225.697 631.939C224.645 632.601 223.563 633.196 222.481 633.758Z" fill="#3F3E3E"/>
<path d="M1471.7 305.908C1478.64 305.58 1485.57 305.258 1492.51 304.931C1494.61 304.836 1495.41 301.96 1494.43 300.062C1492.5 296.356 1490.56 292.637 1488.65 288.927C1507.96 273.052 1531.39 265.851 1554.86 264.149C1579.85 262.342 1607.71 270.664 1630.84 255.918C1635.75 252.785 1641.29 247.517 1646.12 241.107C1658.51 248.772 1673.92 251.124 1686.52 248.291C1703.23 244.532 1717.31 231.039 1723.75 212.84C1739.56 209.515 1754.99 196.312 1764.26 182.475C1781.18 157.206 1784.7 122.501 1773.64 93.0779C1772.86 91.032 1770.12 92.1591 1770.85 94.2858C1778.63 116.864 1778.44 142.814 1769.1 164.727C1760.61 184.661 1744.29 202.109 1725.55 206.853C1726.27 203.936 1726.8 200.911 1727.13 197.809C1729.17 178.275 1718.45 144.883 1697.26 156.083C1677.93 166.299 1681.77 195.434 1697.52 207.313C1703.99 212.19 1711.05 214.001 1718.16 213.602C1712.18 227.935 1700.88 238.672 1687.35 242.248C1675.35 245.418 1661 243.48 1649.36 236.481C1658.24 222.678 1663.04 205.218 1653.03 192.123C1647.12 184.374 1637.73 183.659 1631.28 190.919C1624.06 199.06 1623.58 211.604 1628.3 221.543C1631.56 228.402 1636.36 233.984 1642.04 238.302C1632.45 250.514 1618.31 257.258 1603.94 258.465C1592.41 259.435 1580.86 258.056 1569.32 257.847C1557.84 257.623 1546.33 258.526 1535.01 260.882C1517.47 264.541 1500.49 271.743 1485.91 283.678C1484.91 281.745 1483.89 279.803 1482.89 277.87C1482.26 276.013 1481.67 274.15 1481.12 272.246C1480.71 270.826 1479.5 270.311 1478.44 270.522C1477.08 270.043 1475.46 271.279 1475.02 272.977C1472.4 283.15 1469.8 293.345 1467.13 303.524C1466.26 306.828 1470.05 308.103 1471.7 305.908ZM1694 196.593C1688.16 188.498 1686.33 176.909 1692.03 168.052C1698.13 158.574 1708.9 156.843 1715.76 166.254C1721.7 174.394 1723.45 186.355 1722.39 196.785C1722 200.606 1721.25 204.289 1720.21 207.819C1710.48 208.866 1700.58 205.71 1694 196.593ZM1634.62 222.344C1628.87 213.428 1627.57 197.051 1638.41 192.212C1643.36 189.993 1648.33 193.525 1650.97 198.492C1654.07 204.336 1653.58 211.678 1651.93 217.998C1650.41 223.865 1648.1 229.094 1645.23 233.695C1641.15 230.627 1637.51 226.845 1634.62 222.344Z" fill="#3F3E3E"/>
</g>
<defs>
<clipPath id="clip0_92_1452">
<rect width="1920" height="1242" fill="white"/>
</clipPath>
</defs>
</svg>
